<?xml version="1.0" encoding="UTF-8"?>
<svg id="SVGDoc" width="55" height="43" xmlns="http://www.w3.org/2000/svg" version="1.1" xmlns:xlink="http://www.w3.org/1999/xlink" xmlns:avocode="https://avocode.com/" viewBox="0 0 55 43"><defs></defs><desc>Generated with Avocode.</desc><g><g><title></title><path d="M46.40615,42.9989h-46.40625v-36.10557h46.40625zM1.71869,8.61244v22.88811l11.17184,-11.28284l12.24609,13.96927l8.48637,-5.15735l11.06449,9.5629v-29.98009zM44.68748,41.27896v-0.42937l-11.2793,-9.67147l-8.70117,5.15817l-11.81648,-13.53908l-11.17184,11.06733v7.41441zM7.73428,0.01603h47.2657v36.10557h-7.73437v-1.71912h6.01559v-32.66734h-43.82812v4.29862h-1.71879zM29.21873,18.92879c0,-1.43287 0.50011,-2.64941 1.50387,-3.65374c1.00204,-1.00268 2.21889,-1.50443 3.65238,-1.50443c1.43166,0 2.64862,0.50175 3.65227,1.50443c1.00204,1.00433 1.50398,2.22087 1.50398,3.65374c0,1.43369 -0.50194,2.65106 -1.50398,3.65292c-1.00365,1.00433 -2.22061,1.50443 -3.65227,1.50443c-1.43349,0 -2.65034,-0.50011 -3.65238,-1.50443c-1.00376,-1.00186 -1.50387,-2.21922 -1.50387,-3.65292zM30.9374,18.92879c0,1.0035 0.32227,1.82605 0.9668,2.47092c0.64453,0.64487 1.46702,0.96731 2.47078,0.96731c1.00204,0 1.82613,-0.32244 2.47066,-0.96731c0.64453,-0.64487 0.9668,-1.46742 0.9668,-2.47092c0,-1.00268 -0.32227,-1.82687 -0.9668,-2.47175c-0.64453,-0.64487 -1.46862,-0.96731 -2.47066,-0.96731c-1.00376,0 -1.82625,0.32244 -2.47078,0.96731c-0.64453,0.64487 -0.9668,1.46906 -0.9668,2.47175z" fill-opacity="1"></path></g></g></svg>