<?xml version="1.0" encoding="UTF-8"?>
<svg id="SVGDoc" width="45" height="40" xmlns="http://www.w3.org/2000/svg" version="1.1" xmlns:xlink="http://www.w3.org/1999/xlink" xmlns:avocode="https://avocode.com/" viewBox="0 0 45 40"><defs></defs><desc>Generated with Avocode.</desc><g><g><title></title><path d="M28.2458,40.01596h-27.49123v-39.9995h27.49123zM2.00415,1.2659v3.74998h24.99207v-3.74998zM2.00415,6.26615v25.00041h24.99207v-25.00041zM26.99622,38.76651v-6.25051h-24.99207v6.25051zM12.00091,2.51617h4.99844v1.25027h-4.99844zM16.37461,35.64084c0,0.52149 -0.18311,0.96484 -0.5468,1.32841c-0.36484,0.36521 -0.80784,0.54699 -1.32763,0.54699c-0.52105,0 -0.96405,-0.18178 -1.32774,-0.54699c-0.36484,-0.36356 -0.54668,-0.80692 -0.54668,-1.32841c0,-0.51985 0.18185,-0.9632 0.54668,-1.32759c0.36369,-0.36439 0.80669,-0.54699 1.32774,-0.54699c0.51979,0 0.96279,0.1826 1.32763,0.54699c0.36369,0.36439 0.5468,0.80774 0.5468,1.32759zM14.50018,35.01653c-0.41737,0 -0.62485,0.2081 -0.62485,0.62431c0,0.41785 0.20748,0.62513 0.62485,0.62513c0.41611,0 0.62473,-0.20728 0.62473,-0.62513c0,-0.41621 -0.20863,-0.62431 -0.62473,-0.62431zM28.53384,10.01613h15.93235v29.99983h-15.93235zM43.52904,39.07908v-4.68768h-14.05804v4.68768zM43.52904,33.4537v-18.74989h-14.05804v18.74989zM29.471,10.95383v2.81228h14.05804v-2.81228zM34.62565,11.89153h3.74874v0.93688h-3.74874zM37.90587,36.73483c0,0.39071 -0.13733,0.72302 -0.41004,0.9961c-0.27363,0.27391 -0.60585,0.41045 -0.99575,0.41045c-0.39082,0 -0.72304,-0.13654 -0.99586,-0.41045c-0.27363,-0.27308 -0.40993,-0.60539 -0.40993,-0.9961c0,-0.38989 0.1363,-0.72219 0.40993,-0.9961c0.27283,-0.27308 0.60505,-0.41045 0.99586,-0.41045c0.3899,0 0.72212,0.13736 0.99575,0.41045c0.27271,0.27391 0.41004,0.60622 0.41004,0.9961zM36.50008,36.26598c-0.313,0 -0.46864,0.15711 -0.46864,0.46885c0,0.31339 0.15564,0.46885 0.46864,0.46885c0.31208,0 0.46852,-0.15546 0.46852,-0.46885c0,-0.31174 -0.15644,-0.46885 -0.46852,-0.46885z" fill-opacity="1"></path></g></g></svg>